<svg width="302" height="141" viewBox="0 0 302 141" fill="none" xmlns="http://www.w3.org/2000/svg">
<path d="M32.428 7.812C32.428 6.81466 31.9067 5.88533 30.864 5.024C29.8667 4.11733 28.4387 3.664 26.58 3.664C24.7213 3.664 22.2053 4.072 19.032 4.888C15.904 5.65866 12.8667 6.044 9.92 6.044C7.01867 6.044 4.11733 5.5 1.216 4.412L1.42 3.188C4.36667 4.276 7.24533 4.82 10.056 4.82C12.912 4.82 15.8587 4.43466 18.896 3.664C21.9333 2.848 24.54 2.44 26.716 2.44C28.892 2.44 30.6147 3.02933 31.884 4.208C33.1987 5.38666 33.856 6.83733 33.856 8.56C33.856 10.2373 33.3573 11.5747 32.36 12.572C31.408 13.5693 30.2973 14.068 29.028 14.068C27.7587 14.068 26.6707 13.6827 25.764 12.912C24.8573 12.1413 24.404 11.1213 24.404 9.852C24.404 8.53733 24.744 7.54 25.424 6.86C26.104 6.13466 27.1013 5.772 28.416 5.772C29.776 5.772 30.6827 6.47466 31.136 7.88C31.272 8.24267 31.5213 8.424 31.884 8.424C32.2467 8.424 32.428 8.22 32.428 7.812ZM5.5 46.912V4.888H12.572V25.084H15.496C18.76 25.084 21.004 24.472 22.228 23.248C23.452 21.9787 24.064 19.6893 24.064 16.38H25.22V35.08H24.064C24.064 31.7253 23.452 29.4133 22.228 28.144C21.004 26.8293 18.76 26.172 15.496 26.172H12.572V46.912H18.216V48H0.536V46.912H5.5ZM62.1275 17.74H57.2995V16.72H58.7275C62.2635 16.72 65.4142 16.4253 68.1795 15.836V46.98H72.6675V48H61.9915V42.084H61.5835C60.8129 44.26 59.4982 46.028 57.6395 47.388C55.8262 48.7027 53.7862 49.36 51.5195 49.36C47.6662 49.36 45.0595 48.204 43.6995 45.892C42.3849 43.58 41.7275 40.0893 41.7275 35.42V17.74H36.8995V16.72H38.3275C41.8635 16.72 45.0142 16.4253 47.7795 15.836V34.468C47.7795 38.7293 47.9382 41.404 48.2555 42.492C48.5729 43.58 48.9129 44.5093 49.2755 45.28C50.0009 46.7307 51.2249 47.456 52.9475 47.456C54.7155 47.456 56.2342 46.9347 57.5035 45.892C58.8182 44.8493 59.7929 43.4213 60.4275 41.608C61.5609 38.3893 62.1275 34.536 62.1275 30.048V17.74ZM88.4866 46.98H92.9746V48H77.9466V46.98H82.4346V2.1H77.6066V1.08H79.0346C82.5706 1.08 85.7212 0.785331 88.4866 0.195999V46.98ZM108.276 46.98H112.764V48H97.7356V46.98H102.224V2.1H97.3956V1.08H98.8236C102.36 1.08 105.51 0.785331 108.276 0.195999V46.98ZM133.146 42.084C133.917 43.988 135.367 45.4613 137.498 46.504C139.629 47.5467 142.099 48.068 144.91 48.068C147.766 48.068 150.305 47.2747 152.526 45.688C154.747 44.1013 155.858 41.812 155.858 38.82C155.858 36.508 155.065 34.5813 153.478 33.04C151.891 31.4987 149.965 30.2747 147.698 29.368C145.477 28.416 143.233 27.4187 140.966 26.376C138.745 25.3333 136.841 23.8373 135.254 21.888C133.667 19.9387 132.874 17.536 132.874 14.68C132.874 10.9173 134.189 7.948 136.818 5.772C139.493 3.55066 142.711 2.44 146.474 2.44C150.282 2.44 153.297 3.256 155.518 4.888C157.739 6.47466 158.85 8.492 158.85 10.94C158.85 12.4813 158.351 13.7507 157.354 14.748C156.402 15.7453 155.291 16.244 154.022 16.244C152.753 16.244 151.665 15.8587 150.758 15.088C149.851 14.3173 149.398 13.2973 149.398 12.028C149.398 10.7587 149.738 9.76133 150.418 9.036C151.143 8.31066 152.005 7.948 153.002 7.948C154.589 7.948 155.654 8.65066 156.198 10.056C156.334 10.4187 156.561 10.6 156.878 10.6C157.377 10.6 157.581 10.3733 157.49 9.92C157.263 8.288 156.243 6.86 154.43 5.636C152.662 4.36667 150.418 3.732 147.698 3.732C145.023 3.732 142.734 4.48 140.83 5.976C138.971 7.42666 138.042 9.33066 138.042 11.688C138.042 14 138.835 15.9267 140.422 17.468C142.009 19.0093 143.913 20.256 146.134 21.208C148.401 22.1147 150.645 23.0893 152.866 24.132C155.133 25.1747 157.059 26.6707 158.646 28.62C160.233 30.5693 161.026 32.972 161.026 35.828C161.026 40.18 159.439 43.5347 156.266 45.892C153.093 48.204 149.489 49.36 145.454 49.36C141.465 49.36 138.11 48.476 135.39 46.708C132.715 44.8947 131.378 42.4467 131.378 39.364C131.378 37.8227 131.854 36.5533 132.806 35.556C133.803 34.5587 134.937 34.06 136.206 34.06C137.475 34.06 138.563 34.4453 139.47 35.216C140.377 35.9867 140.83 37.0067 140.83 38.276C140.83 39.5453 140.467 40.5427 139.742 41.268C139.062 41.9933 138.223 42.356 137.226 42.356C135.594 42.356 134.506 41.6533 133.962 40.248C133.826 39.8853 133.577 39.704 133.214 39.704C132.851 39.704 132.67 39.8853 132.67 40.248C132.67 40.6107 132.829 41.2227 133.146 42.084ZM177.272 17.74V40.86C177.272 44.668 177.521 46.776 178.02 47.184C178.292 47.4107 178.654 47.524 179.108 47.524C180.241 47.524 181.329 46.8667 182.372 45.552C183.46 44.2373 184.344 42.8093 185.024 41.268L186.112 41.676C185.25 43.852 184.094 45.688 182.644 47.184C181.193 48.6347 179.516 49.36 177.612 49.36C174.937 49.36 173.192 48.5667 172.376 46.98C171.605 45.348 171.22 42.8093 171.22 39.364V17.74H166.392V16.72H166.868C172.081 16.72 175.254 13.728 176.388 7.744H177.272V16.72H185.5V17.74H177.272ZM202.779 15.36C208.173 15.36 211.732 16.584 213.455 19.032C215.223 21.4347 216.107 25.6507 216.107 31.68V43.716C216.107 45.5747 216.515 46.504 217.331 46.504C219.008 46.504 220.119 43.8973 220.663 38.684L221.887 38.82C221.207 45.8467 218.917 49.36 215.019 49.36C213.885 49.36 213.001 48.952 212.367 48.136C211.777 47.32 211.392 46.436 211.211 45.484C211.075 44.4867 211.007 43.2627 211.007 41.812H210.599C210.009 44.2147 208.808 46.0733 206.995 47.388C205.181 48.7027 202.847 49.36 199.991 49.36C197.18 49.36 194.709 48.612 192.579 47.116C190.448 45.5747 189.383 43.376 189.383 40.52C189.383 38.3893 189.995 36.6213 191.219 35.216C193.757 32.3147 199.515 30.864 208.491 30.864C208.989 30.864 209.511 30.864 210.055 30.864V27.532C210.055 23.9507 209.443 21.2533 208.219 19.44C206.995 17.6267 204.864 16.72 201.827 16.72C198.835 16.72 196.636 17.332 195.231 18.556C193.825 19.78 193.123 21.0493 193.123 22.364C193.123 22.772 193.304 22.976 193.667 22.976C194.075 22.976 194.301 22.772 194.347 22.364C194.619 21.1853 195.525 20.596 197.067 20.596C198.064 20.596 198.857 20.9587 199.447 21.684C200.036 22.364 200.331 23.2253 200.331 24.268C200.331 25.2653 199.945 26.1267 199.175 26.852C198.449 27.532 197.475 27.872 196.251 27.872C195.072 27.872 194.029 27.4187 193.123 26.512C192.261 25.56 191.831 24.404 191.831 23.044C191.831 20.5053 192.896 18.6013 195.027 17.332C197.157 16.0173 199.741 15.36 202.779 15.36ZM210.055 36.644V32.088C209.601 32.088 208.876 32.088 207.879 32.088C206.927 32.088 205.771 32.156 204.411 32.292C203.096 32.428 201.736 32.768 200.331 33.312C197.429 34.3547 195.979 36.6667 195.979 40.248C195.979 42.424 196.5 44.1693 197.543 45.484C198.585 46.7987 200.263 47.456 202.575 47.456C204.887 47.456 206.7 46.4133 208.015 44.328C209.375 42.2427 210.055 39.6813 210.055 36.644ZM241.769 16.72C235.604 16.72 232.521 21.8427 232.521 32.088C232.521 42.3333 235.649 47.456 241.905 47.456C244.263 47.456 246.189 46.5947 247.685 44.872C249.227 43.1493 250.292 40.928 250.881 38.208L252.105 38.344C251.425 41.6533 250.065 44.328 248.025 46.368C245.985 48.3627 243.401 49.36 240.273 49.36C235.604 49.36 232.045 47.796 229.597 44.668C227.149 41.4947 225.925 37.3467 225.925 32.224C225.925 27.1013 227.149 23.0213 229.597 19.984C232.091 16.9013 235.785 15.36 240.681 15.36C243.809 15.36 246.348 16.04 248.297 17.4C250.247 18.76 251.221 20.8227 251.221 23.588C251.221 24.948 250.768 26.104 249.861 27.056C249 27.9627 247.957 28.416 246.733 28.416C245.555 28.416 244.58 28.076 243.809 27.396C243.084 26.6707 242.721 25.8093 242.721 24.812C242.721 23.7693 243.016 22.908 243.605 22.228C244.195 21.5027 244.988 21.14 245.985 21.14C247.527 21.14 248.433 21.7293 248.705 22.908C248.751 23.316 248.955 23.52 249.317 23.52C249.725 23.52 249.929 23.316 249.929 22.908C249.929 21.3667 249.227 19.9613 247.821 18.692C246.461 17.3773 244.444 16.72 241.769 16.72ZM270.804 30.184L266.452 30.932V46.98H270.94V48H255.912V46.98H260.4V2.1H255.572V1.08H257C260.536 1.08 263.687 0.785331 266.452 0.195999V29.776C275.428 28.5973 279.916 25.696 279.916 21.072C279.916 19.712 279.553 18.624 278.828 17.808C278.148 16.992 277.287 16.584 276.244 16.584C275.791 16.584 275.564 16.7653 275.564 17.128C275.564 17.4907 275.768 17.7173 276.176 17.808C277.355 18.08 277.944 18.964 277.944 20.46C277.944 21.412 277.581 22.2053 276.856 22.84C276.176 23.4293 275.315 23.724 274.272 23.724C273.275 23.724 272.413 23.3613 271.688 22.636C271.008 21.8653 270.668 20.8907 270.668 19.712C270.668 18.5333 271.121 17.5133 272.028 16.652C272.98 15.7907 274.227 15.36 275.768 15.36C277.309 15.36 278.579 15.8813 279.576 16.924C280.573 17.9213 281.072 19.304 281.072 21.072C281.072 24.8347 278.715 27.5547 274 29.232V29.368C277.536 29.5493 279.848 30.4787 280.936 32.156C282.024 33.8333 282.568 36.576 282.568 40.384V42.968C282.568 44.6907 282.704 45.9373 282.976 46.708C283.293 47.4333 283.86 47.796 284.676 47.796C284.993 47.796 285.401 47.728 285.9 47.592L286.036 48.408C284.857 48.7253 283.633 48.884 282.364 48.884C278.465 48.884 276.516 46.64 276.516 42.152V38.48C276.516 32.9493 274.748 30.184 271.212 30.184H270.804ZM5.5 96.08C6.588 96.9867 7.76667 97.44 9.036 97.44C10.3507 97.44 11.5293 97.2813 12.572 96.964V124.912H16.72C21.752 124.912 25.4467 123.643 27.804 121.104C29.844 118.973 31.0907 115.437 31.544 110.496C31.7707 108.456 31.884 105.849 31.884 102.676C31.884 99.5027 31.6573 96.7147 31.204 94.312C30.7507 91.864 30.0027 89.6653 28.96 87.716C26.784 83.8173 22.908 81.868 17.332 81.868C13.388 81.868 10.3507 82.7067 8.22 84.384C7.54 84.8827 6.996 85.4947 6.588 86.22C6.22533 86.9453 6.044 87.5347 6.044 87.988C6.044 88.396 6.22533 88.6 6.588 88.6C6.95067 88.6 7.2 88.4187 7.336 88.056C7.88 86.6507 8.94533 85.948 10.532 85.948C11.5293 85.948 12.368 86.3107 13.048 87.036C13.7733 87.7613 14.136 88.7587 14.136 90.028C14.136 91.2973 13.6827 92.3173 12.776 93.088C11.8693 93.8587 10.7813 94.244 9.512 94.244C8.24267 94.244 7.10933 93.7453 6.112 92.748C5.16 91.7507 4.684 90.4813 4.684 88.94C4.684 86.492 5.86267 84.4747 8.22 82.888C10.5773 81.256 13.7053 80.44 17.604 80.44C24.7667 80.44 30.32 82.2307 34.264 85.812C38.208 89.348 40.18 94.856 40.18 102.336C40.18 118.112 32.836 126 18.148 126H0.536V124.912H5.5V96.08ZM62.4516 93.36C65.8516 93.36 68.6849 94.0853 70.9516 95.536C73.2636 96.9867 74.4196 99.1627 74.4196 102.064C74.4196 106.552 71.8583 109.317 66.7356 110.36C64.1516 110.859 60.9329 111.108 57.0796 111.108H53.8836V113.08C53.8836 116.752 54.6316 119.744 56.1276 122.056C57.6689 124.323 59.8903 125.456 62.7916 125.456C65.7383 125.456 68.0276 124.595 69.6596 122.872C71.3369 121.149 72.5156 118.928 73.1956 116.208L74.4196 116.344C73.6943 119.653 72.2209 122.328 69.9996 124.368C67.8236 126.363 65.0583 127.36 61.7036 127.36C56.9889 127.36 53.4076 125.819 50.9596 122.736C48.5116 119.608 47.2876 115.483 47.2876 110.36C47.2876 105.237 48.6023 101.135 51.2316 98.052C53.8609 94.924 57.6009 93.36 62.4516 93.36ZM53.8836 109.884H56.2636C59.9356 109.884 62.4969 109.521 63.9476 108.796C65.4436 108.071 66.4636 107.187 67.0076 106.144C67.5516 105.056 67.8236 103.537 67.8236 101.588C67.8236 99.6387 67.3249 97.984 66.3276 96.624C65.3756 95.2187 63.9023 94.516 61.9076 94.516C59.9129 94.516 58.2809 95.2413 57.0116 96.692C55.7876 98.0973 54.9489 99.752 54.4956 101.656C54.0876 103.56 53.8836 105.668 53.8836 107.98V109.884ZM90.4835 115.324C91.1182 117.999 92.0249 120.175 93.2035 121.852C94.3822 123.484 95.7195 124.3 97.2155 124.3C98.7569 124.3 100.276 123.303 101.772 121.308C103.313 119.268 104.56 116.684 105.512 113.556C106.509 110.383 107.008 107.277 107.008 104.24C107.008 97.8027 105.217 94.584 101.636 94.584C101.182 94.584 100.956 94.7653 100.956 95.128C100.956 95.4907 101.16 95.7173 101.568 95.808C102.837 96.08 103.449 96.828 103.404 98.052C103.404 99.2307 103.064 100.115 102.384 100.704C101.749 101.293 100.888 101.588 99.7995 101.588C98.7569 101.588 97.8729 101.225 97.1475 100.5C96.4675 99.7747 96.1275 98.8227 96.1275 97.644C96.1275 96.4653 96.6035 95.468 97.5555 94.652C98.5075 93.7907 99.6635 93.36 101.024 93.36C105.829 93.36 108.232 96.896 108.232 103.968C108.232 107.685 107.62 111.357 106.396 114.984C105.217 118.565 103.585 121.535 101.5 123.892C99.4595 126.204 97.2835 127.36 94.9715 127.36C91.1182 127.36 88.0582 124.821 85.7915 119.744C83.5702 114.667 82.4595 107.935 82.4595 99.548V95.74H77.6315V94.72H79.0595C82.6409 94.72 85.8369 94.4253 88.6475 93.836V97.984C88.6475 104.376 89.2595 110.156 90.4835 115.324ZM130.12 93.36C133.52 93.36 136.353 94.0853 138.62 95.536C140.932 96.9867 142.088 99.1627 142.088 102.064C142.088 106.552 139.526 109.317 134.404 110.36C131.82 110.859 128.601 111.108 124.748 111.108H121.552V113.08C121.552 116.752 122.3 119.744 123.796 122.056C125.337 124.323 127.558 125.456 130.46 125.456C133.406 125.456 135.696 124.595 137.328 122.872C139.005 121.149 140.184 118.928 140.864 116.208L142.088 116.344C141.362 119.653 139.889 122.328 137.668 124.368C135.492 126.363 132.726 127.36 129.372 127.36C124.657 127.36 121.076 125.819 118.628 122.736C116.18 119.608 114.956 115.483 114.956 110.36C114.956 105.237 116.27 101.135 118.9 98.052C121.529 94.924 125.269 93.36 130.12 93.36ZM121.552 109.884H123.932C127.604 109.884 130.165 109.521 131.616 108.796C133.112 108.071 134.132 107.187 134.676 106.144C135.22 105.056 135.492 103.537 135.492 101.588C135.492 99.6387 134.993 97.984 133.996 96.624C133.044 95.2187 131.57 94.516 129.576 94.516C127.581 94.516 125.949 95.2413 124.68 96.692C123.456 98.0973 122.617 99.752 122.164 101.656C121.756 103.56 121.552 105.668 121.552 107.98V109.884ZM157.948 124.98H162.436V126H147.408V124.98H151.896V80.1H147.068V79.08H148.496C152.032 79.08 155.182 78.7853 157.948 78.196V124.98ZM194.057 122.6C191.427 125.773 187.755 127.36 183.041 127.36C178.326 127.36 174.654 125.773 172.025 122.6C169.395 119.427 168.081 115.347 168.081 110.36C168.081 105.373 169.395 101.293 172.025 98.12C174.654 94.9467 178.326 93.36 183.041 93.36C187.755 93.36 191.427 94.9467 194.057 98.12C196.686 101.293 198.001 105.373 198.001 110.36C198.001 115.347 196.686 119.427 194.057 122.6ZM191.269 114.916C191.359 113.601 191.405 112.083 191.405 110.36C191.405 108.637 191.359 107.119 191.269 105.804C191.178 104.489 190.951 103.084 190.589 101.588C190.271 100.092 189.818 98.868 189.229 97.916C188.685 96.9187 187.869 96.1027 186.781 95.468C185.738 94.8333 184.491 94.516 183.041 94.516C181.59 94.516 180.321 94.8333 179.233 95.468C178.19 96.1027 177.374 96.9187 176.785 97.916C176.241 98.868 175.787 100.092 175.425 101.588C175.107 103.084 174.903 104.489 174.813 105.804C174.722 107.119 174.677 108.637 174.677 110.36C174.677 112.083 174.722 113.601 174.813 114.916C174.903 116.231 175.107 117.636 175.425 119.132C175.787 120.628 176.241 121.875 176.785 122.872C177.374 123.824 178.19 124.617 179.233 125.252C180.321 125.887 181.59 126.204 183.041 126.204C184.491 126.204 185.738 125.887 186.781 125.252C187.869 124.617 188.685 123.824 189.229 122.872C189.818 121.875 190.271 120.628 190.589 119.132C190.951 117.636 191.178 116.231 191.269 114.916ZM214.518 139.6H219.006V140.62H203.978V139.6H208.466V95.74H203.638V94.72H205.066C208.602 94.72 211.752 94.4253 214.518 93.836V100.908H214.926C215.742 98.596 216.943 96.76 218.53 95.4C220.162 94.04 222.088 93.36 224.31 93.36C228.39 93.36 231.404 94.9693 233.354 98.188C235.348 101.361 236.346 105.396 236.346 110.292C236.346 115.188 235.326 119.268 233.286 122.532C231.246 125.751 228.118 127.36 223.902 127.36C219.686 127.36 216.694 125.501 214.926 121.784H214.518V139.6ZM214.382 110.292V112.74C214.382 116.276 215.062 119.291 216.422 121.784C217.782 124.232 219.912 125.456 222.814 125.456C225.942 125.456 227.914 123.688 228.73 120.152C229.41 117.296 229.75 114.44 229.75 111.584C229.75 108.728 229.659 106.552 229.478 105.056C229.342 103.56 229.047 102.019 228.594 100.432C228.186 98.8 227.46 97.5307 226.418 96.624C225.42 95.7173 224.196 95.264 222.746 95.264C221.34 95.264 220.071 95.7853 218.938 96.828C217.85 97.8253 216.988 99.1173 216.354 100.704C215.039 103.923 214.382 107.119 214.382 110.292ZM258.948 93.36C262.348 93.36 265.181 94.0853 267.448 95.536C269.76 96.9867 270.916 99.1627 270.916 102.064C270.916 106.552 268.354 109.317 263.232 110.36C260.648 110.859 257.429 111.108 253.576 111.108H250.38V113.08C250.38 116.752 251.128 119.744 252.624 122.056C254.165 124.323 256.386 125.456 259.288 125.456C262.234 125.456 264.524 124.595 266.156 122.872C267.833 121.149 269.012 118.928 269.692 116.208L270.916 116.344C270.19 119.653 268.717 122.328 266.496 124.368C264.32 126.363 261.554 127.36 258.2 127.36C253.485 127.36 249.904 125.819 247.456 122.736C245.008 119.608 243.784 115.483 243.784 110.36C243.784 105.237 245.098 101.135 247.728 98.052C250.357 94.924 254.097 93.36 258.948 93.36ZM250.38 109.884H252.76C256.432 109.884 258.993 109.521 260.444 108.796C261.94 108.071 262.96 107.187 263.504 106.144C264.048 105.056 264.32 103.537 264.32 101.588C264.32 99.6387 263.821 97.984 262.824 96.624C261.872 95.2187 260.398 94.516 258.404 94.516C256.409 94.516 254.777 95.2413 253.508 96.692C252.284 98.0973 251.445 99.752 250.992 101.656C250.584 103.56 250.38 105.668 250.38 107.98V109.884ZM300.444 98.528C300.444 97.3493 300.013 96.3747 299.152 95.604C298.29 94.8333 297.134 94.448 295.684 94.448C294.233 94.448 292.873 95.0373 291.604 96.216C290.38 97.3493 289.428 98.8453 288.748 100.704C287.524 104.285 286.912 108.161 286.912 112.332V124.98H291.876V126H276.372V124.98H280.86V95.74H276.032V94.72H277.46C281.086 94.72 284.282 94.4253 287.048 93.836V100.908H287.456C289.36 95.876 292.216 93.36 296.024 93.36C297.701 93.36 299.061 93.904 300.104 94.992C301.192 96.0347 301.736 97.3493 301.736 98.936C301.736 100.477 301.282 101.724 300.376 102.676C299.514 103.583 298.472 104.036 297.248 104.036C296.069 104.036 295.094 103.696 294.324 103.016C293.598 102.291 293.236 101.429 293.236 100.432C293.236 99.3893 293.53 98.528 294.12 97.848C294.709 97.1227 295.502 96.76 296.5 96.76C298.041 96.76 298.948 97.3493 299.22 98.528C299.31 98.936 299.537 99.14 299.9 99.14C300.262 99.14 300.444 98.936 300.444 98.528Z" fill="white"/>
</svg>
