<svg width="920" height="40" viewBox="0 0 920 40" fill="none" xmlns="http://www.w3.org/2000/svg">
<path d="M45.7391 22.0001H39V13.6098C39 13.2736 39.2648 13.0001 39.5901 13.0001H52.4096C52.7351 13.0001 53 13.2736 53 13.6098V21.7725H52.5624V13.6098C52.5624 13.5245 52.4939 13.4552 52.4096 13.4552H39.5901C39.506 13.4552 39.4376 13.5245 39.4376 13.6098V21.5449H45.7391V22.0001Z" fill="white" fill-opacity="0.2"/>
<path d="M45.7775 20.6822H40.0658V15.0001H52V18.7543H51.5598V15.3818H40.506V20.3004H45.7775V20.6822ZM45.7775 23.0001H39.6662C39.33 23.0001 39 22.7073 39 22.409V21.2306H45.7775V21.6124H39.4402V22.409C39.4402 22.4971 39.5712 22.6183 39.6662 22.6183H45.7775V23.0001Z" fill="white" fill-opacity="0.2"/>
<path d="M43.3698 25.0001L43 24.5906C43.3118 24.5275 43.5695 24.4708 43.7074 24.4354L43.749 24.4246C43.807 24.4096 43.8794 24.3909 43.8953 24.3836C43.9038 24.3781 43.9393 24.3479 43.998 24.2091C44.068 24.0433 44.0596 23.7439 44.052 23.4799C44.0469 23.2965 44.0419 23.1233 44.0635 23.0001L45 23.0372C44.9821 23.1388 44.9866 23.3015 44.9915 23.4738C45.0002 23.774 45.0089 24.0843 44.9192 24.2965C44.782 24.6215 44.6344 24.7032 44.1984 24.8157L44.1573 24.8264C43.9444 24.8812 43.6118 24.951 43.3698 25.0001Z" fill="white" fill-opacity="0.2"/>
<path d="M43 24.0001H46V25.0001H43V24.0001Z" fill="white" fill-opacity="0.2"/>
<path d="M51.4344 26.8227H46.7523C46.4789 26.8227 46.2565 26.6018 46.2565 26.3302V19.5783C46.2565 19.3065 46.4789 19.0854 46.7523 19.0854H51.4344C51.7076 19.0854 51.9297 19.3065 51.9297 19.5783V21.1386H51.496V19.5783C51.4957 19.5622 51.489 19.547 51.4774 19.5359C51.4659 19.5248 51.4504 19.5188 51.4344 19.5191H46.7523C46.7362 19.5187 46.7206 19.5247 46.7089 19.5358C46.6973 19.5469 46.6905 19.5622 46.6901 19.5783V26.3302C46.6901 26.3627 46.718 26.389 46.7523 26.389H51.4344V26.8227Z" fill="white" fill-opacity="0.2"/>
<path d="M49.1578 25.839H47.1553V20.0183H50.9568V20.452H47.5889V25.4053H49.1578V25.839Z" fill="white" fill-opacity="0.2"/>
<path d="M52.6075 26.8227H50.1497C49.9333 26.8227 49.7572 26.6476 49.7572 26.4322V21.3084C49.7572 21.093 49.9333 20.9177 50.1497 20.9177H52.6075C52.8239 20.9177 53 21.0929 53 21.3084V26.4323C53 26.6476 52.8239 26.8227 52.6075 26.8227ZM50.1909 26.389H52.5663V21.3513H50.1909V26.389Z" fill="white" fill-opacity="0.2"/>
<path d="M50.1776 25.3535H52.7652V25.7872H50.1776V25.3535Z" fill="white" fill-opacity="0.2"/>
<path d="M47.8486 16.8399L47.848 15.6904L46.6841 15.6903V15.2566L48.2815 15.2568L48.2823 16.8397L47.8486 16.8399Z" fill="white" fill-opacity="0.2"/>
<path d="M47.6739 15.5553L47.979 15.8634L46.6274 17.2018L46.3222 16.8936L47.6739 15.5553Z" fill="white" fill-opacity="0.2"/>
<path d="M45.5558 19.5393L43.9582 19.5392L43.9575 17.9563L44.3912 17.9561L44.3916 19.1055L45.5558 19.1056V19.5393Z" fill="white" fill-opacity="0.2"/>
<path d="M45.6133 17.5942L45.9184 17.9024L44.5658 19.2405L44.2608 18.9323L45.6133 17.5942Z" fill="white" fill-opacity="0.2"/>
<path d="M61.0918 16.6465V19.6876H62.9316C63.9453 19.6876 64.5254 19.1309 64.5254 18.1641C64.5254 17.2208 63.9102 16.6465 62.8965 16.6465H61.0918ZM61.0918 20.7481V24.0001H59.7793V15.545H63.0547C64.7949 15.545 65.8789 16.5528 65.8789 18.129C65.8789 19.2715 65.2695 20.1973 64.2383 20.543L66.1309 24.0001H64.6191L62.8965 20.7481H61.0918ZM72.5176 22.8633V24.0001H67.1504V15.545H72.5176V16.6758H68.4629V19.1485H72.3008V20.2383H68.4629V22.8633H72.5176ZM73.4902 21.6446H74.7852C74.8789 22.4825 75.6934 23.0333 76.8066 23.0333C77.873 23.0333 78.6406 22.4825 78.6406 21.7266C78.6406 21.0704 78.1777 20.6778 77.082 20.4083L75.9863 20.1446C74.4336 19.7696 73.7129 19.043 73.7129 17.8653C73.7129 16.4063 74.9844 15.4044 76.7891 15.4044C78.5762 15.4044 79.8008 16.4063 79.8418 17.8653H78.5645C78.4883 17.0215 77.791 16.5118 76.7715 16.5118C75.752 16.5118 75.0547 17.0274 75.0547 17.7774C75.0547 18.3751 75.5 18.7266 76.5898 18.9962L77.5215 19.2247C79.2559 19.6348 79.9766 20.3321 79.9766 21.5684C79.9766 23.1505 78.7168 24.1407 76.7129 24.1407C74.8379 24.1407 73.5723 23.1739 73.4902 21.6446ZM81.1543 15.545H84.3242C85.9648 15.545 87.1074 16.6758 87.1074 18.3223C87.1074 19.9747 85.9414 21.1114 84.2832 21.1114H82.4668V24.0001H81.1543V15.545ZM82.4668 16.6524V20.0098H83.9727C85.1152 20.0098 85.7656 19.3946 85.7656 18.3282C85.7656 17.2618 85.1152 16.6524 83.9785 16.6524H82.4668ZM91.9121 15.4044C94.3438 15.4044 95.873 17.086 95.873 19.7755C95.873 22.4649 94.3438 24.1407 91.9121 24.1407C89.4746 24.1407 87.9512 22.4649 87.9512 19.7755C87.9512 17.086 89.4746 15.4044 91.9121 15.4044ZM91.9121 16.5587C90.3066 16.5587 89.293 17.8008 89.293 19.7755C89.293 21.7442 90.3066 22.9864 91.9121 22.9864C93.5176 22.9864 94.5254 21.7442 94.5254 19.7755C94.5254 17.8008 93.5176 16.5587 91.9121 16.5587ZM98.4043 24.0001H97.127V15.545H98.3164L102.699 21.7794H102.746V15.545H104.023V24.0001H102.84L98.457 17.7715H98.4043V24.0001ZM105.213 21.6446H106.508C106.602 22.4825 107.416 23.0333 108.529 23.0333C109.596 23.0333 110.363 22.4825 110.363 21.7266C110.363 21.0704 109.9 20.6778 108.805 20.4083L107.709 20.1446C106.156 19.7696 105.436 19.043 105.436 17.8653C105.436 16.4063 106.707 15.4044 108.512 15.4044C110.299 15.4044 111.523 16.4063 111.564 17.8653H110.287C110.211 17.0215 109.514 16.5118 108.494 16.5118C107.475 16.5118 106.777 17.0274 106.777 17.7774C106.777 18.3751 107.223 18.7266 108.312 18.9962L109.244 19.2247C110.979 19.6348 111.699 20.3321 111.699 21.5684C111.699 23.1505 110.439 24.1407 108.436 24.1407C106.561 24.1407 105.295 23.1739 105.213 21.6446ZM114.189 24.0001H112.877V15.545H114.189V24.0001ZM119.574 24.0001H118.139L115.121 15.545H116.545L118.848 22.5235H118.883L121.191 15.545H122.592L119.574 24.0001ZM128.896 22.8633V24.0001H123.529V15.545H128.896V16.6758H124.842V19.1485H128.68V20.2383H124.842V22.8633H128.896ZM132.682 15.545H135.664C138.178 15.545 139.666 17.0919 139.666 19.7579C139.666 22.4297 138.184 24.0001 135.664 24.0001H132.682V15.545ZM133.994 16.6758V22.8633H135.541C137.334 22.8633 138.324 21.7676 138.324 19.7696C138.324 17.7774 137.328 16.6758 135.541 16.6758H133.994ZM146.287 22.8633V24.0001H140.92V15.545H146.287V16.6758H142.232V19.1485H146.07V20.2383H142.232V22.8633H146.287ZM147.26 21.6446H148.555C148.648 22.4825 149.463 23.0333 150.576 23.0333C151.643 23.0333 152.41 22.4825 152.41 21.7266C152.41 21.0704 151.947 20.6778 150.852 20.4083L149.756 20.1446C148.203 19.7696 147.482 19.043 147.482 17.8653C147.482 16.4063 148.754 15.4044 150.559 15.4044C152.346 15.4044 153.57 16.4063 153.611 17.8653H152.334C152.258 17.0215 151.561 16.5118 150.541 16.5118C149.521 16.5118 148.824 17.0274 148.824 17.7774C148.824 18.3751 149.27 18.7266 150.359 18.9962L151.291 19.2247C153.025 19.6348 153.746 20.3321 153.746 21.5684C153.746 23.1505 152.486 24.1407 150.482 24.1407C148.607 24.1407 147.342 23.1739 147.26 21.6446ZM156.236 24.0001H154.924V15.545H156.236V24.0001ZM165.078 20.4844C165.078 22.7755 163.725 24.1407 161.434 24.1407C159.014 24.1407 157.49 22.4473 157.49 19.7344C157.49 17.0684 159.008 15.4044 161.416 15.4044C163.297 15.4044 164.721 16.5176 165.014 18.2051H163.666C163.35 17.1563 162.523 16.5528 161.422 16.5528C159.805 16.5528 158.832 17.7364 158.832 19.7227C158.832 21.7442 159.834 22.9922 161.445 22.9922C162.816 22.9922 163.766 22.1133 163.783 20.8301V20.6837H161.598V19.6231H165.078V20.4844ZM167.639 24.0001H166.361V15.545H167.551L171.934 21.7794H171.98V15.545H173.258V24.0001H172.074L167.691 17.7715H167.639V24.0001Z" fill="white" fill-opacity="0.2"/>
<path d="M217.092 15.545V20.918C217.092 22.1251 217.854 22.9747 219.201 22.9747C220.549 22.9747 221.316 22.1251 221.316 20.918V15.545H222.623V21.0294C222.623 22.8516 221.322 24.1407 219.201 24.1407C217.08 24.1407 215.779 22.8516 215.779 21.0294V15.545H217.092ZM225.494 24.0001H224.182V15.545H225.494V24.0001ZM227.398 25.8047H226.273L229.273 15.545H230.398L227.398 25.8047ZM232.525 15.545V20.918C232.525 22.1251 233.287 22.9747 234.635 22.9747C235.982 22.9747 236.75 22.1251 236.75 20.918V15.545H238.057V21.0294C238.057 22.8516 236.756 24.1407 234.635 24.1407C232.514 24.1407 231.213 22.8516 231.213 21.0294V15.545H232.525ZM239.094 24.0001L241.9 19.7637V19.7227L239.123 15.545H240.688L242.773 18.8145H242.82L244.93 15.545H246.412L243.547 19.7696V19.8047L246.359 24.0001H244.824L242.721 20.7774H242.68L240.547 24.0001H239.094ZM249.893 15.545H252.875C255.389 15.545 256.877 17.0919 256.877 19.7579C256.877 22.4297 255.395 24.0001 252.875 24.0001H249.893V15.545ZM251.205 16.6758V22.8633H252.752C254.545 22.8633 255.535 21.7676 255.535 19.7696C255.535 17.7774 254.539 16.6758 252.752 16.6758H251.205ZM263.498 22.8633V24.0001H258.131V15.545H263.498V16.6758H259.443V19.1485H263.281V20.2383H259.443V22.8633H263.498ZM264.471 21.6446H265.766C265.859 22.4825 266.674 23.0333 267.787 23.0333C268.854 23.0333 269.621 22.4825 269.621 21.7266C269.621 21.0704 269.158 20.6778 268.062 20.4083L266.967 20.1446C265.414 19.7696 264.693 19.043 264.693 17.8653C264.693 16.4063 265.965 15.4044 267.77 15.4044C269.557 15.4044 270.781 16.4063 270.822 17.8653H269.545C269.469 17.0215 268.771 16.5118 267.752 16.5118C266.732 16.5118 266.035 17.0274 266.035 17.7774C266.035 18.3751 266.48 18.7266 267.57 18.9962L268.502 19.2247C270.236 19.6348 270.957 20.3321 270.957 21.5684C270.957 23.1505 269.697 24.1407 267.693 24.1407C265.818 24.1407 264.553 23.1739 264.471 21.6446ZM273.447 24.0001H272.135V15.545H273.447V24.0001ZM282.289 20.4844C282.289 22.7755 280.936 24.1407 278.645 24.1407C276.225 24.1407 274.701 22.4473 274.701 19.7344C274.701 17.0684 276.219 15.4044 278.627 15.4044C280.508 15.4044 281.932 16.5176 282.225 18.2051H280.877C280.561 17.1563 279.734 16.5528 278.633 16.5528C277.016 16.5528 276.043 17.7364 276.043 19.7227C276.043 21.7442 277.045 22.9922 278.656 22.9922C280.027 22.9922 280.977 22.1133 280.994 20.8301V20.6837H278.809V19.6231H282.289V20.4844ZM284.85 24.0001H283.572V15.545H284.762L289.145 21.7794H289.191V15.545H290.469V24.0001H289.285L284.902 17.7715H284.85V24.0001Z" fill="white" fill-opacity="0.2"/>
<g clip-path="url(#clip0_7_58)">
<path d="M209 26.5034H195V15.0956H209V26.5034ZM195.438 26.0659H208.562V15.5331H195.438V26.0659Z" fill="white" fill-opacity="0.2"/>
<path d="M207.525 17.6216V20.2237H196.475V17.6216H207.525ZM207.955 17.191H196.045V20.6541H207.955V17.191ZM199.171 21.7227V22.7958H196.475V21.7227H199.171ZM199.602 21.2921H196.045V23.2263H199.602V21.2921ZM196.045 23.761H199.602V24.1985H196.045V23.761ZM196.045 24.8608H199.602V25.2983H196.045V24.8608ZM200.222 23.761H203.779V24.1985H200.222V23.761Z" fill="white" fill-opacity="0.2"/>
<path d="M199.233 18.6869H204.767V19.1244H199.233V18.6869ZM200.222 24.8608H203.779V25.2983H200.222V24.8608ZM204.398 23.761H207.955V24.1985H204.398V23.761ZM204.398 24.8608H207.955V25.2983H204.398V24.8608ZM203.348 21.7227V22.7958H200.652V21.7227H203.348ZM203.779 21.2921H200.222V23.2263H203.779L203.779 21.2921ZM207.525 21.7227V22.7958H204.829V21.7227H207.525ZM207.955 21.2921H204.398V23.2263H207.955V21.2921ZM209 15.533H195V13.4967H209V15.533ZM195.438 15.0955H208.562V13.9342H195.438V15.0955Z" fill="white" fill-opacity="0.2"/>
<path d="M195.838 14.2845H196.353V14.722H195.838V14.2845ZM196.73 14.2845H197.244V14.722H196.73V14.2845ZM197.62 14.2845H198.135V14.722H197.62V14.2845ZM197.251 16.2263H201.795V16.6638H197.251V16.2263ZM196.045 16.2263H196.608V16.6638H196.045V16.2263Z" fill="white" fill-opacity="0.2"/>
</g>
<path d="M328.153 13.7727C328.201 13.6693 328.206 13.5511 328.167 13.4439C328.128 13.3368 328.048 13.2495 327.944 13.2013L325.455 12.0404C325.404 12.0165 325.348 12.0029 325.292 12.0004C325.235 11.9979 325.179 12.0066 325.126 12.0259C325.073 12.0452 325.024 12.0748 324.983 12.113C324.941 12.1512 324.907 12.1972 324.883 12.2484L323.596 15.01L322.966 13.1608C322.937 13.0758 322.882 13.002 322.809 12.9497C322.736 12.8975 322.649 12.8693 322.559 12.8693H314.105C314.041 12.8693 313.978 12.8836 313.921 12.911C313.863 12.9384 313.812 12.9783 313.772 13.0278L312.096 15.0848C312.051 15.1413 312.02 15.2086 312.007 15.2803C311.994 15.3521 311.999 15.4259 312.023 15.4949L316.181 27.7086C316.21 27.7935 316.264 27.8673 316.337 27.9196C316.41 27.9718 316.498 28 316.588 28H325.672C325.729 28.0011 325.786 27.9908 325.839 27.9697C325.892 27.9486 325.94 27.9171 325.981 27.8771C326.022 27.837 326.055 27.7892 326.077 27.7365C326.099 27.6838 326.11 27.6271 326.11 27.57C326.11 27.5128 326.099 27.4561 326.077 27.4034C326.055 27.3507 326.022 27.3029 325.981 27.2629C325.94 27.2228 325.892 27.1913 325.839 27.1702C325.786 27.1491 325.729 27.1388 325.672 27.1399H316.896L313.031 15.7864L315.058 15.7868C315.13 15.7868 315.201 15.7686 315.264 15.7339C315.328 15.6993 315.381 15.6492 315.42 15.5884C315.459 15.5275 315.482 15.4579 315.487 15.3859C315.492 15.3138 315.478 15.2417 315.448 15.1762L314.778 13.7292H322.251L323.071 16.1359L320.21 22.2708C320.177 22.341 320.164 22.4187 320.172 22.4957L320.172 22.4958L320.442 25.1657C320.45 25.2399 320.476 25.3107 320.52 25.3715C320.563 25.4322 320.621 25.4807 320.688 25.5122C320.756 25.5436 320.83 25.557 320.905 25.551C320.979 25.545 321.05 25.5198 321.112 25.4779L323.331 23.9689V23.9688C323.395 23.9253 323.446 23.8653 323.479 23.7951L324.75 21.0693L327.01 27.7084C327.047 27.8163 327.125 27.9051 327.227 27.9555C327.33 28.0058 327.448 28.0135 327.556 27.9769C327.664 27.9401 327.753 27.862 327.803 27.7596C327.853 27.6573 327.861 27.5392 327.824 27.4312L325.275 19.9433L328.153 13.7727ZM313.334 14.9264L314.004 14.1043L314.385 14.9267L313.334 14.9264ZM325.481 13.0014L327.191 13.799L326.798 14.642L325.088 13.8445L325.481 13.0014ZM321.104 23.162L322.222 23.6833L321.225 24.361L321.104 23.162ZM322.881 23.042L321.171 22.2445L324.725 14.6238L326.435 15.4214L322.881 23.042Z" fill="white" fill-opacity="0.2"/>
<path d="M324.588 16.132L322.85 19.8592C322.825 19.9105 322.811 19.9662 322.808 20.023C322.805 20.0799 322.813 20.1368 322.832 20.1905C322.851 20.2441 322.881 20.2934 322.919 20.3355C322.958 20.3777 323.004 20.4117 323.056 20.4358C323.107 20.4599 323.163 20.4735 323.22 20.4757C323.277 20.478 323.334 20.469 323.387 20.4492C323.44 20.4293 323.489 20.3991 323.531 20.3602C323.573 20.3213 323.606 20.2745 323.629 20.2226L325.367 16.4955C325.391 16.4443 325.405 16.389 325.407 16.3325C325.41 16.2761 325.401 16.2198 325.382 16.1667C325.363 16.1136 325.333 16.0649 325.295 16.0232C325.257 15.9816 325.211 15.9479 325.16 15.9241C325.056 15.8759 324.938 15.8707 324.831 15.9097C324.724 15.9487 324.636 16.0287 324.588 16.132ZM322.869 20.8369C322.765 20.7887 322.647 20.7835 322.54 20.8225C322.433 20.8615 322.345 20.9415 322.297 21.0448L322.238 21.1706C322.208 21.2361 322.194 21.3082 322.199 21.3804C322.204 21.4525 322.227 21.5222 322.266 21.5832C322.304 21.6442 322.358 21.6944 322.421 21.7292C322.485 21.764 322.556 21.7823 322.628 21.7824C322.71 21.7824 322.79 21.759 322.859 21.715C322.928 21.671 322.983 21.6082 323.018 21.5339L323.077 21.4083C323.125 21.305 323.13 21.1867 323.091 21.0795C323.052 20.9724 322.972 20.8851 322.869 20.8369ZM315.292 16.6516C315.235 16.6516 315.179 16.6628 315.127 16.6844C315.075 16.706 315.028 16.7376 314.988 16.7776C314.948 16.8175 314.916 16.8649 314.895 16.9171C314.873 16.9693 314.862 17.0252 314.862 17.0817C314.862 17.1381 314.873 17.194 314.895 17.2462C314.916 17.2984 314.948 17.3458 314.988 17.3857C315.028 17.4257 315.075 17.4573 315.127 17.4789C315.179 17.5005 315.235 17.5117 315.292 17.5117H315.363C315.42 17.5117 315.476 17.5006 315.528 17.479C315.58 17.4573 315.627 17.4257 315.667 17.3857C315.707 17.3458 315.739 17.2984 315.761 17.2462C315.782 17.194 315.793 17.1381 315.793 17.0817C315.793 17.0252 315.782 16.9693 315.76 16.9171C315.739 16.8649 315.707 16.8175 315.667 16.7776C315.627 16.7377 315.58 16.706 315.528 16.6844C315.476 16.6628 315.42 16.6516 315.363 16.6516H315.292ZM321.027 17.5116C321.083 17.5116 321.139 17.5005 321.191 17.4789C321.243 17.4572 321.291 17.4256 321.331 17.3856C321.371 17.3457 321.402 17.2983 321.424 17.2461C321.446 17.194 321.457 17.138 321.457 17.0816C321.457 17.0251 321.446 16.9692 321.424 16.917C321.402 16.8648 321.371 16.8174 321.331 16.7775C321.291 16.7376 321.243 16.7059 321.191 16.6843C321.139 16.6627 321.083 16.6515 321.027 16.6515H316.671C316.557 16.6515 316.448 16.6969 316.367 16.7775C316.286 16.8581 316.241 16.9675 316.241 17.0816C316.241 17.1956 316.286 17.305 316.367 17.3856C316.448 17.4663 316.557 17.5116 316.671 17.5116H321.027ZM320.497 20.4346C320.497 20.3206 320.452 20.2112 320.371 20.1305C320.29 20.0499 320.181 20.0046 320.067 20.0046H316.433C316.377 20.0046 316.321 20.0157 316.269 20.0373C316.217 20.0589 316.169 20.0906 316.129 20.1305C316.089 20.1705 316.058 20.2179 316.036 20.27C316.014 20.3222 316.003 20.3781 316.003 20.4346C316.003 20.4911 316.014 20.547 316.036 20.5992C316.058 20.6513 316.089 20.6987 316.129 20.7387C316.169 20.7786 316.217 20.8103 316.269 20.8319C316.321 20.8535 316.377 20.8646 316.433 20.8646H320.067C320.181 20.8646 320.29 20.8193 320.371 20.7387C320.452 20.658 320.497 20.5486 320.497 20.4346ZM317.575 23.3575C317.518 23.3575 317.462 23.3687 317.41 23.3903C317.358 23.4119 317.311 23.4436 317.271 23.4835C317.231 23.5234 317.199 23.5708 317.177 23.623C317.156 23.6752 317.145 23.7311 317.145 23.7876C317.145 23.844 317.156 23.8999 317.177 23.9521C317.199 24.0043 317.231 24.0517 317.271 24.0916C317.311 24.1316 317.358 24.1632 317.41 24.1848C317.462 24.2064 317.518 24.2176 317.575 24.2176H319.314C319.428 24.2176 319.537 24.1723 319.618 24.0916C319.699 24.011 319.744 23.9016 319.744 23.7876C319.744 23.6735 319.699 23.5641 319.618 23.4835C319.537 23.4028 319.428 23.3575 319.314 23.3575H317.575Z" fill="white" fill-opacity="0.2"/>
<path d="M338.541 24.1407C336.167 24.1407 334.667 22.4649 334.667 19.7696C334.667 17.0919 336.179 15.4044 338.541 15.4044C340.457 15.4044 341.904 16.5821 342.126 18.3458H340.826C340.591 17.2618 339.689 16.5528 338.541 16.5528C337.005 16.5528 336.009 17.8126 336.009 19.7696C336.009 21.7442 336.994 22.9922 338.546 22.9922C339.724 22.9922 340.562 22.3887 340.826 21.3692H342.132C341.81 23.1153 340.486 24.1407 338.541 24.1407ZM346.972 15.4044C349.404 15.4044 350.933 17.086 350.933 19.7755C350.933 22.4649 349.404 24.1407 346.972 24.1407C344.535 24.1407 343.011 22.4649 343.011 19.7755C343.011 17.086 344.535 15.4044 346.972 15.4044ZM346.972 16.5587C345.367 16.5587 344.353 17.8008 344.353 19.7755C344.353 21.7442 345.367 22.9864 346.972 22.9864C348.578 22.9864 349.585 21.7442 349.585 19.7755C349.585 17.8008 348.578 16.5587 346.972 16.5587ZM353.464 24.0001H352.187V15.545H353.376L357.759 21.7794H357.806V15.545H359.083V24.0001H357.9L353.517 17.7715H353.464V24.0001ZM364.058 24.0001H362.746V16.6758H360.156V15.545H366.642V16.6758H364.058V24.0001ZM373.082 22.8633V24.0001H367.714V15.545H373.082V16.6758H369.027V19.1485H372.865V20.2383H369.027V22.8633H373.082ZM375.707 24.0001H374.429V15.545H375.619L380.001 21.7794H380.048V15.545H381.326V24.0001H380.142L375.759 17.7715H375.707V24.0001ZM386.3 24.0001H384.988V16.6758H382.398V15.545H388.884V16.6758H386.3V24.0001ZM397.216 17.6251L395.394 24.0001H394.152L391.873 15.545H393.238L394.802 22.1661H394.849L396.636 15.545H397.855L399.648 22.1661H399.695L401.259 15.545H402.625L400.339 24.0001H399.103L397.275 17.6251H397.216ZM404.98 16.6465V19.6876H406.82C407.833 19.6876 408.414 19.1309 408.414 18.1641C408.414 17.2208 407.798 16.6465 406.785 16.6465H404.98ZM404.98 20.7481V24.0001H403.667V15.545H406.943C408.683 15.545 409.767 16.5528 409.767 18.129C409.767 19.2715 409.158 20.1973 408.126 20.543L410.019 24.0001H408.507L406.785 20.7481H404.98ZM412.351 24.0001H411.039V15.545H412.351V24.0001ZM417.32 24.0001H416.007V16.6758H413.417V15.545H419.904V16.6758H417.32V24.0001ZM422.289 24.0001H420.976V15.545H422.289V24.0001ZM425.125 24.0001H423.847V15.545H425.037L429.419 21.7794H429.466V15.545H430.744V24.0001H429.56L425.177 17.7715H425.125V24.0001ZM439.591 20.4844C439.591 22.7755 438.238 24.1407 435.947 24.1407C433.527 24.1407 432.003 22.4473 432.003 19.7344C432.003 17.0684 433.521 15.4044 435.929 15.4044C437.81 15.4044 439.234 16.5176 439.527 18.2051H438.179C437.863 17.1563 437.037 16.5528 435.935 16.5528C434.318 16.5528 433.345 17.7364 433.345 19.7227C433.345 21.7442 434.347 22.9922 435.958 22.9922C437.33 22.9922 438.279 22.1133 438.296 20.8301V20.6837H436.111V19.6231H439.591V20.4844Z" fill="white" fill-opacity="0.2"/>
<path d="M486.48 24.0001L485.707 21.7149H482.484L481.71 24.0001H480.345L483.398 15.545H484.816L487.869 24.0001H486.48ZM484.078 16.9512L482.818 20.6602H485.373L484.113 16.9512H484.078ZM488.8 15.545H491.97C493.611 15.545 494.753 16.6758 494.753 18.3223C494.753 19.9747 493.587 21.1114 491.929 21.1114H490.113V24.0001H488.8V15.545ZM490.113 16.6524V20.0098H491.619C492.761 20.0098 493.412 19.3946 493.412 18.3282C493.412 17.2618 492.761 16.6524 491.625 16.6524H490.113ZM497.214 24.0001H495.902V15.545H497.214V24.0001ZM501.21 15.545H504.193C506.707 15.545 508.195 17.0919 508.195 19.7579C508.195 22.4297 506.712 24.0001 504.193 24.0001H501.21V15.545ZM502.523 16.6758V22.8633H504.07C505.863 22.8633 506.853 21.7676 506.853 19.7696C506.853 17.7774 505.857 16.6758 504.07 16.6758H502.523ZM514.816 22.8633V24.0001H509.449V15.545H514.816V16.6758H510.761V19.1485H514.599V20.2383H510.761V22.8633H514.816ZM519.99 24.0001H518.554L515.537 15.545H516.96L519.263 22.5235H519.298L521.607 15.545H523.007L519.99 24.0001ZM529.312 22.8633V24.0001H523.945V15.545H529.312V16.6758H525.257V19.1485H529.095V20.2383H525.257V22.8633H529.312ZM535.91 22.8633V24.0001H530.66V15.545H531.972V22.8633H535.91ZM540.339 15.4044C542.771 15.4044 544.3 17.086 544.3 19.7755C544.3 22.4649 542.771 24.1407 540.339 24.1407C537.902 24.1407 536.378 22.4649 536.378 19.7755C536.378 17.086 537.902 15.4044 540.339 15.4044ZM540.339 16.5587C538.734 16.5587 537.72 17.8008 537.72 19.7755C537.72 21.7442 538.734 22.9864 540.339 22.9864C541.945 22.9864 542.953 21.7442 542.953 19.7755C542.953 17.8008 541.945 16.5587 540.339 16.5587ZM545.554 15.545H548.724C550.365 15.545 551.507 16.6758 551.507 18.3223C551.507 19.9747 550.341 21.1114 548.683 21.1114H546.867V24.0001H545.554V15.545ZM546.867 16.6524V20.0098H548.373C549.515 20.0098 550.166 19.3946 550.166 18.3282C550.166 17.2618 549.515 16.6524 548.378 16.6524H546.867ZM561.21 24.0001H560.009V17.7774H559.968L557.419 23.9356H556.447L553.892 17.7774H553.851V24.0001H552.656V15.545H554.173L556.91 22.2188H556.957L559.687 15.545H561.21V24.0001ZM568.136 22.8633V24.0001H562.769V15.545H568.136V16.6758H564.082V19.1485H567.919V20.2383H564.082V22.8633H568.136ZM570.761 24.0001H569.484V15.545H570.673L575.056 21.7794H575.103V15.545H576.38V24.0001H575.197L570.814 17.7715H570.761V24.0001ZM581.355 24.0001H580.042V16.6758H577.453V15.545H583.939V16.6758H581.355V24.0001Z" fill="white" fill-opacity="0.2"/>
<path d="M473.026 17.9584H472.443V13.5834H461.943V17.9584H461.359V13.2917C461.359 13.2144 461.39 13.1402 461.445 13.0855C461.5 13.0308 461.574 13.0001 461.651 13.0001H472.734C472.812 13.0001 472.886 13.0308 472.941 13.0855C472.995 13.1402 473.026 13.2144 473.026 13.2917V17.9584ZM472.734 27.0001H461.651C461.574 27.0001 461.5 26.9693 461.445 26.9146C461.39 26.8599 461.359 26.7857 461.359 26.7084V22.6251H461.943V26.4167H472.443V22.6251H473.026V26.7084C473.026 26.7857 472.995 26.8599 472.941 26.9146C472.886 26.9693 472.812 27.0001 472.734 27.0001ZM472.151 22.3334H467.776C467.382 22.3337 466.996 22.2198 466.665 22.0054C466.334 21.791 466.072 21.4854 465.911 21.1254C465.75 20.7654 465.696 20.3664 465.757 19.9768C465.818 19.5871 465.991 19.2234 466.254 18.9296L466.688 19.3205C466.501 19.5304 466.378 19.7901 466.335 20.0682C466.292 20.3462 466.33 20.6309 466.445 20.8877C466.56 21.1446 466.747 21.3626 466.983 21.5157C467.219 21.6687 467.495 21.7501 467.776 21.7501H472.151C472.538 21.7501 472.909 21.5964 473.182 21.3229C473.456 21.0494 473.609 20.6785 473.609 20.2917C473.609 19.905 473.456 19.534 473.182 19.2605C472.909 18.987 472.538 18.8334 472.151 18.8334H468.359V18.2501H472.151C472.693 18.2501 473.212 18.4652 473.595 18.8481C473.978 19.2309 474.193 19.7502 474.193 20.2917C474.193 20.8332 473.978 21.3525 473.595 21.7354C473.212 22.1183 472.693 22.3334 472.151 22.3334Z" fill="white" fill-opacity="0.2"/>
<path d="M466.026 22.3334H462.235C461.693 22.3334 461.174 22.1183 460.791 21.7354C460.408 21.3525 460.193 20.8332 460.193 20.2917C460.193 19.7503 460.408 19.231 460.791 18.8481C461.174 18.4652 461.693 18.2501 462.235 18.2501H466.61C467.004 18.2498 467.39 18.3637 467.721 18.5781C468.052 18.7924 468.314 19.0981 468.475 19.4581C468.636 19.8181 468.689 20.217 468.628 20.6067C468.568 20.9964 468.395 21.36 468.132 21.6538L467.697 21.263C467.885 21.0531 468.008 20.7934 468.051 20.5153C468.094 20.2372 468.056 19.9526 467.941 19.6958C467.826 19.4389 467.639 19.2208 467.403 19.0678C467.166 18.9148 466.891 18.8334 466.61 18.8334H462.235C461.848 18.8334 461.477 18.9871 461.203 19.2606C460.93 19.534 460.776 19.905 460.776 20.2917C460.776 20.6785 460.93 21.0495 461.203 21.3229C461.477 21.5964 461.848 21.7501 462.235 21.7501H466.026V22.3334ZM462.526 14.1667H463.11V14.7501H462.526V14.1667ZM463.693 14.1667H464.276V14.7501H463.693V14.1667ZM464.86 14.1667H465.443V14.7501H464.86V14.1667ZM461.651 15.3334H472.735V15.9167H461.651V15.3334ZM462.235 24.6667H472.151V25.2501H462.235V24.6667Z" fill="white" fill-opacity="0.2"/>
<path d="M622.472 21.6446H623.767C623.861 22.4825 624.675 23.0333 625.789 23.0333C626.855 23.0333 627.623 22.4825 627.623 21.7266C627.623 21.0704 627.16 20.6778 626.064 20.4083L624.968 20.1446C623.416 19.7696 622.695 19.043 622.695 17.8653C622.695 16.4063 623.966 15.4044 625.771 15.4044C627.558 15.4044 628.783 16.4063 628.824 17.8653H627.547C627.47 17.0215 626.773 16.5118 625.754 16.5118C624.734 16.5118 624.037 17.0274 624.037 17.7774C624.037 18.3751 624.482 18.7266 625.572 18.9962L626.504 19.2247C628.238 19.6348 628.959 20.3321 628.959 21.5684C628.959 23.1505 627.699 24.1407 625.695 24.1407C623.82 24.1407 622.554 23.1739 622.472 21.6446ZM635.504 22.8633V24.0001H630.136V15.545H635.504V16.6758H631.449V19.1485H635.287V20.2383H631.449V22.8633H635.504ZM640.507 15.4044C642.939 15.4044 644.468 17.086 644.468 19.7755C644.468 22.4649 642.939 24.1407 640.507 24.1407C638.07 24.1407 636.547 22.4649 636.547 19.7755C636.547 17.086 638.07 15.4044 640.507 15.4044ZM640.507 16.5587C638.902 16.5587 637.888 17.8008 637.888 19.7755C637.888 21.7442 638.902 22.9864 640.507 22.9864C642.113 22.9864 643.121 21.7442 643.121 19.7755C643.121 17.8008 642.113 16.5587 640.507 16.5587ZM651.816 15.4044C654.248 15.4044 655.777 17.086 655.777 19.7755C655.777 22.4649 654.248 24.1407 651.816 24.1407C649.379 24.1407 647.855 22.4649 647.855 19.7755C647.855 17.086 649.379 15.4044 651.816 15.4044ZM651.816 16.5587C650.211 16.5587 649.197 17.8008 649.197 19.7755C649.197 21.7442 650.211 22.9864 651.816 22.9864C653.422 22.9864 654.429 21.7442 654.429 19.7755C654.429 17.8008 653.422 16.5587 651.816 16.5587ZM657.031 15.545H660.201C661.841 15.545 662.984 16.6758 662.984 18.3223C662.984 19.9747 661.818 21.1114 660.16 21.1114H658.343V24.0001H657.031V15.545ZM658.343 16.6524V20.0098H659.849C660.992 20.0098 661.642 19.3946 661.642 18.3282C661.642 17.2618 660.992 16.6524 659.855 16.6524H658.343ZM667.543 24.0001H666.23V16.6758H663.64V15.545H670.127V16.6758H667.543V24.0001ZM672.511 24.0001H671.199V15.545H672.511V24.0001ZM682.625 24.0001H681.423V17.7774H681.382L678.834 23.9356H677.861L675.306 17.7774H675.265V24.0001H674.07V15.545H675.588L678.324 22.2188H678.371L681.101 15.545H682.625V24.0001ZM685.496 24.0001H684.183V15.545H685.496V24.0001ZM686.832 24.0001V23.1036L691.461 16.7227V16.6758H686.972V15.545H693.072V16.4415L688.461 22.8223V22.8633H693.183V24.0001H686.832ZM700.027 24.0001L699.254 21.7149H696.031L695.257 24.0001H693.892L696.945 15.545H698.363L701.416 24.0001H700.027ZM697.625 16.9512L696.365 20.6602H698.92L697.66 16.9512H697.625ZM704.597 24.0001H703.285V16.6758H700.695V15.545H707.181V16.6758H704.597V24.0001ZM709.566 24.0001H708.254V15.545H709.566V24.0001ZM714.781 15.4044C717.213 15.4044 718.742 17.086 718.742 19.7755C718.742 22.4649 717.213 24.1407 714.781 24.1407C712.343 24.1407 710.82 22.4649 710.82 19.7755C710.82 17.086 712.343 15.4044 714.781 15.4044ZM714.781 16.5587C713.175 16.5587 712.162 17.8008 712.162 19.7755C712.162 21.7442 713.175 22.9864 714.781 22.9864C716.386 22.9864 717.394 21.7442 717.394 19.7755C717.394 17.8008 716.386 16.5587 714.781 16.5587ZM721.273 24.0001H719.996V15.545H721.185L725.568 21.7794H725.615V15.545H726.892V24.0001H725.709L721.326 17.7715H721.273V24.0001Z" fill="white" fill-opacity="0.2"/>
<path fill-rule="evenodd" clip-rule="evenodd" d="M612.514 18.8125V19.3155H611.936C611.895 19.5907 611.787 19.844 611.628 20.0583L612.037 20.4669L611.681 20.8226L611.273 20.414C611.058 20.5721 610.805 20.6804 610.53 20.7218V21.2995H610.027V20.7218C609.752 20.6804 609.498 20.5721 609.284 20.414L608.875 20.8226L608.52 20.4669L608.928 20.0583C608.77 19.844 608.662 19.5907 608.621 19.3155H608.043V18.8125H608.621C608.662 18.5372 608.77 18.284 608.928 18.0696L608.52 17.661L608.875 17.3054L609.284 17.714C609.498 17.5558 609.752 17.4475 610.027 17.4061V16.8284H610.53V17.4061C610.805 17.4475 611.058 17.5558 611.273 17.714L611.681 17.3054L612.037 17.661L611.628 18.0696C611.787 18.2839 611.895 18.5372 611.936 18.8125H612.514ZM610.278 18.058C610.834 18.058 611.284 18.5084 611.284 19.064C611.284 19.6196 610.834 20.07 610.278 20.07C609.723 20.07 609.272 19.6196 609.272 19.064C609.272 18.5084 609.723 18.058 610.278 18.058Z" fill="white" fill-opacity="0.1"/>
<path d="M615.396 16.7098C615.904 16.7098 616.316 16.2977 616.316 15.7894C616.316 15.281 615.904 14.8689 615.396 14.8689C614.887 14.8689 614.475 15.281 614.475 15.7894C614.475 16.2977 614.887 16.7098 615.396 16.7098Z" fill="white" fill-opacity="0.3"/>
<path d="M610.674 22.5015L610.922 24.2391L610.394 24.3143L610.136 22.5136C610.315 22.5236 610.495 22.5197 610.674 22.5015ZM614.933 16.3944L613.231 17.3775C613.139 17.2262 613.035 17.0807 612.918 16.9423L614.666 15.9329L614.933 16.3944L614.933 16.3944ZM607.309 15.3966L608.258 16.4441C608.137 16.5373 608.023 16.6385 607.916 16.7469C607.898 16.7649 607.881 16.783 607.863 16.8014L606.914 15.7537L607.309 15.3966H607.309ZM608.06 21.6495L606.937 22.8855L606.542 22.5263L607.692 21.2614C607.771 21.3592 607.856 21.4525 607.945 21.541C607.983 21.578 608.021 21.6142 608.06 21.6495Z" fill="white" fill-opacity="0.3"/>
<path d="M606.648 15.841C607.156 15.841 607.568 15.4289 607.568 14.9205C607.568 14.4122 607.156 14.0001 606.648 14.0001C606.14 14.0001 605.728 14.4122 605.728 14.9205C605.728 15.4289 606.14 15.841 606.648 15.841Z" fill="white" fill-opacity="0.3"/>
<path d="M606.113 24.1278C606.622 24.1278 607.034 23.7157 607.034 23.2073C607.034 22.699 606.622 22.2869 606.113 22.2869C605.605 22.2869 605.193 22.699 605.193 23.2073C605.193 23.7157 605.605 24.1278 606.113 24.1278Z" fill="white" fill-opacity="0.3"/>
<path d="M610.658 25.9991C611.166 25.9991 611.578 25.587 611.578 25.0786C611.578 24.5703 611.166 24.1581 610.658 24.1581C610.149 24.1581 609.737 24.5703 609.737 25.0786C609.737 25.587 610.149 25.9991 610.658 25.9991Z" fill="white" fill-opacity="0.3"/>
<path fill-rule="evenodd" clip-rule="evenodd" d="M614.815 23.385L614.176 23.9903L611.997 21.6908L612.635 21.0853L614.815 23.385Z" fill="white" fill-opacity="0.2"/>
<path fill-rule="evenodd" clip-rule="evenodd" d="M607.11 19.8331C607.215 20.4455 607.496 21.0347 607.955 21.5195C609.192 22.8247 611.253 22.8804 612.558 21.6436C613.379 20.8663 613.705 19.7635 613.527 18.7274L612.929 18.8305C613.073 19.6736 612.808 20.5708 612.141 21.2032C611.079 22.2089 609.402 22.1638 608.396 21.1016C608.022 20.7073 607.794 20.2282 607.708 19.73L607.11 19.8331L607.11 19.8331ZM608.079 16.9174C607.259 17.6943 606.932 18.7971 607.11 19.8331L607.708 19.73C607.564 18.8871 607.829 17.9898 608.496 17.3577C609.558 16.3517 611.235 16.3964 612.242 17.4581C612.615 17.8526 612.844 18.3321 612.929 18.8305L613.527 18.7274C613.422 18.1147 613.141 17.5254 612.682 17.0402C611.445 15.7354 609.384 15.6802 608.079 16.9174H608.079Z" fill="white" fill-opacity="0.2"/>
<path fill-rule="evenodd" clip-rule="evenodd" d="M616.055 24.3108C616.323 24.5928 616.311 25.0389 616.029 25.3062C615.747 25.5736 615.301 25.5617 615.034 25.279L612.976 23.1073C612.708 22.8252 612.72 22.3796 613.002 22.1122C613.284 21.8448 613.73 21.8569 613.997 22.1389L616.055 24.3108Z" fill="white" fill-opacity="0.2"/>
<path fill-rule="evenodd" clip-rule="evenodd" d="M613.532 22.1386C613.491 21.8996 613.263 21.7382 613.024 21.7794C612.784 21.8205 612.623 22.0491 612.664 22.2882C612.706 22.5272 612.934 22.6886 613.173 22.6474C613.412 22.6062 613.573 22.3777 613.532 22.1386Z" fill="white" fill-opacity="0.1"/>
<g clip-path="url(#clip1_7_58)">
<path d="M761.63 15.4523H762.068V15.6676H761.63V15.4523ZM762.068 25.6364H761.63V25.1829H762.068V25.6364ZM762.068 24.7296H761.63V24.2761H762.068V24.7296ZM762.068 23.8226H761.63V23.3692H762.068V23.8226ZM762.068 22.9157H761.63V22.4622H762.068V22.9157ZM762.068 22.0088H761.63V21.5554H762.068V22.0088ZM762.068 21.1018H761.63V20.6483H762.068V21.1018ZM762.068 20.195H761.63V19.7415H762.068V20.195ZM762.068 19.2881H761.63V18.8346H762.068V19.2881ZM762.068 18.3811H761.63V17.9276H762.068V18.3811ZM762.068 17.4742H761.63V17.0207H762.068V17.4742ZM762.068 16.5673H761.63V16.1139H762.068V16.5673ZM762.068 26.3657H761.634V25.9282L762.068 25.9315V26.3657ZM761.21 26.3657H760.78V25.9282H761.21V26.3657ZM760.349 26.3657H759.919V25.9282H760.349V26.3657ZM759.488 26.3657H759.058V25.9282H759.488V26.3657ZM758.628 26.3657H758.197V25.9282H758.628V26.3657ZM757.767 26.3657H757.336V25.9282H757.767V26.3657ZM756.906 26.3657H756.475V25.9282H756.906V26.3657ZM756.045 26.3657H755.615V25.9282H756.045V26.3657ZM755.184 26.3657H754.754V25.9282H755.184V26.3657ZM754.323 26.3657H753.893V25.9282H754.323V26.3657ZM753.462 26.3657H753.032V25.9282H753.462V26.3657ZM752.601 26.3657H752.171V25.9282H752.601V26.3657ZM751.74 26.3657H751.31V25.9282H751.74V26.3657ZM750.88 26.3657H750.449V25.9282H750.88V26.3657ZM750.019 26.3657H749.588V25.9282H750.019V26.3657H750.019ZM749.158 26.3657H748.727V25.9282H749.158V26.3657H749.158ZM748.502 26.3657H748.068V25.9315H748.505L748.502 26.3657ZM748.505 25.4855H748.068V25.032H748.505V25.4855ZM748.505 24.5785H748.068V24.1251H748.505V24.5785ZM748.505 23.6716H748.068V23.2181H748.505V23.6716ZM748.505 22.7648H748.068V22.3113H748.505V22.7648ZM748.505 21.8578H748.068V21.4043H748.505V21.8578ZM748.505 20.9509H748.068V20.4974H748.505V20.9509ZM748.505 20.0439H748.068V19.5905H748.505V20.0439ZM748.505 19.1371H748.068V18.6836H748.505V19.1371ZM748.505 18.2302H748.068V17.7767H748.505V18.2302ZM748.505 17.3232H748.068V16.8698H748.505V17.3232ZM748.505 16.4163H748.068V15.9628H748.505V16.4163ZM748.068 15.4523H748.505V15.6676H748.068V15.4523Z" fill="white" fill-opacity="0.2"/>
<path d="M762.068 15.6711H748.068V13.6345H762.068V15.6711ZM748.505 15.2336H761.63V14.072H748.505V15.2336Z" fill="white" fill-opacity="0.2"/>
<path d="M748.906 14.4225H749.421V14.86H748.906V14.4225ZM749.798 14.4225H750.312V14.86H749.798V14.4225ZM750.689 14.4225H751.203V14.86H750.689V14.4225Z" fill="white" fill-opacity="0.2"/>
<path d="M753.488 22.183L751.579 20.6548L753.488 19.1266L753.762 19.4682L752.279 20.6548L753.762 21.8414L753.488 22.183ZM756.648 22.183L756.374 21.8414L757.856 20.6548L756.374 19.4684L756.648 19.1268L758.557 20.6548L756.648 22.183ZM755.523 18.4739L755.944 18.595L754.722 22.8352L754.302 22.714L755.523 18.4739Z" fill="white" fill-opacity="0.2"/>
</g>
<path d="M773.67 17.6251L771.847 24.0001H770.605L768.326 15.545H769.691L771.255 22.1661H771.302L773.089 15.545H774.308L776.101 22.1661H776.148L777.713 15.545H779.078L776.793 24.0001H775.556L773.728 17.6251H773.67ZM785.488 22.8633V24.0001H780.121V15.545H785.488V16.6758H781.433V19.1485H785.271V20.2383H781.433V22.8633H785.488ZM790.228 24.0001H786.836V15.545H790.211C791.711 15.545 792.695 16.377 792.695 17.6544C792.695 18.5508 792.033 19.3536 791.189 19.4942V19.5411C792.338 19.67 793.111 20.4844 793.111 21.6094C793.111 23.0977 792.027 24.0001 790.228 24.0001ZM788.148 16.6172V19.1426H789.619C790.755 19.1426 791.382 18.6739 791.382 17.836C791.382 17.0508 790.843 16.6172 789.894 16.6172H788.148ZM788.148 22.9278H789.959C791.142 22.9278 791.769 22.4415 791.769 21.5274C791.769 20.6133 791.125 20.1446 789.882 20.1446H788.148V22.9278ZM796.679 15.545H799.662C802.175 15.545 803.664 17.0919 803.664 19.7579C803.664 22.4297 802.181 24.0001 799.662 24.0001H796.679V15.545ZM797.992 16.6758V22.8633H799.539C801.332 22.8633 802.322 21.7676 802.322 19.7696C802.322 17.7774 801.326 16.6758 799.539 16.6758H797.992ZM810.285 22.8633V24.0001H804.918V15.545H810.285V16.6758H806.23V19.1485H810.068V20.2383H806.23V22.8633H810.285ZM815.459 24.0001H814.023L811.005 15.545H812.429L814.732 22.5235H814.767L817.076 15.545H818.476L815.459 24.0001ZM824.781 22.8633V24.0001H819.414V15.545H824.781V16.6758H820.726V19.1485H824.564V20.2383H820.726V22.8633H824.781ZM831.379 22.8633V24.0001H826.129V15.545H827.441V22.8633H831.379ZM835.808 15.4044C838.24 15.4044 839.769 17.086 839.769 19.7755C839.769 22.4649 838.24 24.1407 835.808 24.1407C833.371 24.1407 831.847 22.4649 831.847 19.7755C831.847 17.086 833.371 15.4044 835.808 15.4044ZM835.808 16.5587C834.203 16.5587 833.189 17.8008 833.189 19.7755C833.189 21.7442 834.203 22.9864 835.808 22.9864C837.414 22.9864 838.422 21.7442 838.422 19.7755C838.422 17.8008 837.414 16.5587 835.808 16.5587ZM841.023 15.545H844.193C845.834 15.545 846.976 16.6758 846.976 18.3223C846.976 19.9747 845.81 21.1114 844.152 21.1114H842.336V24.0001H841.023V15.545ZM842.336 16.6524V20.0098H843.841C844.984 20.0098 845.634 19.3946 845.634 18.3282C845.634 17.2618 844.984 16.6524 843.847 16.6524H842.336ZM856.679 24.0001H855.478V17.7774H855.437L852.888 23.9356H851.916L849.361 17.7774H849.32V24.0001H848.125V15.545H849.642L852.379 22.2188H852.425L855.156 15.545H856.679V24.0001ZM863.605 22.8633V24.0001H858.238V15.545H863.605V16.6758H859.55V19.1485H863.388V20.2383H859.55V22.8633H863.605ZM866.23 24.0001H864.953V15.545H866.142L870.525 21.7794H870.572V15.545H871.849V24.0001H870.666L866.283 17.7715H866.23V24.0001ZM876.824 24.0001H875.511V16.6758H872.922V15.545H879.408V16.6758H876.824V24.0001Z" fill="white" fill-opacity="0.2"/>
<defs>
<clipPath id="clip0_7_58">
<rect width="14" height="14" fill="white" transform="translate(195 13.0001)"/>
</clipPath>
<clipPath id="clip1_7_58">
<rect width="14" height="14" fill="white" transform="translate(748.068 13.0001)"/>
</clipPath>
</defs>
</svg>
